HIERARCHY
ROOT root
{
	OFFSET 0.000000 0.000000 0.000000
	CHANNELS 6 Xposition Yposition Zposition Zrotation Yrotation Xrotation
	JOINT lhip
	{
		OFFSET 0.058581 -0.082280 -0.017664
		CHANNELS 3 Zrotation Yrotation Xrotation
		JOINT lknee
		{
			OFFSET 0.043451 -0.386469 0.008037
			CHANNELS 3 Zrotation Yrotation Xrotation
			JOINT lankle
			{
				OFFSET -0.014790 -0.426874 -0.037428
				CHANNELS 3 Zrotation Yrotation Xrotation
				JOINT ltoe
				{
					OFFSET 0.041054 -0.060286 0.122042
					CHANNELS 3 Zrotation Yrotation Xrotation
					End Site
					{
						OFFSET 0.000000 0.000000 0.000000
					}
				}
			}
		}
	}
	JOINT rhip
	{
		OFFSET -0.060310 -0.090513 -0.013543
		CHANNELS 3 Zrotation Yrotation Xrotation
		JOINT rknee
		{
			OFFSET -0.043257 -0.383688 -0.004843
			CHANNELS 3 Zrotation Yrotation Xrotation
			JOINT rankle
			{
				OFFSET 0.019056 -0.420046 -0.034562
				CHANNELS 3 Zrotation Yrotation Xrotation
				JOINT rtoe
				{
					OFFSET -0.034840 -0.062106 0.130323
					CHANNELS 3 Zrotation Yrotation Xrotation
					End Site
					{
						OFFSET 0.000000 0.000000 0.000000
					}
				}
			}
		}
	}
	JOINT lowerback
	{
		OFFSET 0.004439 0.124404 -0.038385
		CHANNELS 3 Zrotation Yrotation Xrotation
		JOINT upperback
		{
			OFFSET 0.004488 0.137956 0.026820
			CHANNELS 3 Zrotation Yrotation Xrotation
			JOINT chest
			{
				OFFSET -0.002265 0.056032 0.002855
				CHANNELS 3 Zrotation Yrotation Xrotation
				JOINT lowerneck
				{
					OFFSET -0.013390 0.211636 -0.033468
					CHANNELS 3 Zrotation Yrotation Xrotation
					JOINT upperneck
					{
						OFFSET 0.010113 0.088937 0.050410
						CHANNELS 3 Zrotation Yrotation Xrotation
						End Site
						{
							OFFSET 0.000000 0.000000 0.000000
						}
					}
				}
				JOINT lclavicle
				{
					OFFSET 0.071702 0.114000 -0.018898
					CHANNELS 3 Zrotation Yrotation Xrotation
					JOINT lshoulder
					{
						OFFSET 0.122921 0.045205 -0.019046
						CHANNELS 3 Zrotation Yrotation Xrotation
						JOINT lelbow
						{
							OFFSET 0.255332 -0.015649 -0.022946
							CHANNELS 3 Zrotation Yrotation Xrotation
							JOINT lwrist
							{
								OFFSET 0.265709 0.012698 -0.007375
								CHANNELS 3 Zrotation Yrotation Xrotation
								End Site
								{
									OFFSET 0.000000 0.000000 0.000000
								}
							}
						}
					}
				}
				JOINT rclavicle
				{
					OFFSET -0.082954 0.112472 -0.023707
					CHANNELS 3 Zrotation Yrotation Xrotation
					JOINT rshoulder
					{
						OFFSET -0.113228 0.046853 -0.008472
						CHANNELS 3 Zrotation Yrotation Xrotation
						JOINT relbow
						{
							OFFSET -0.260127 -0.014369 -0.031269
							CHANNELS 3 Zrotation Yrotation Xrotation
							JOINT rwrist
							{
								OFFSET -0.269108 0.006794 -0.006027
								CHANNELS 3 Zrotation Yrotation Xrotation
								End Site
								{
									OFFSET 0.000000 0.000000 0.000000
								}
							}
						}
					}
				}
			}
		}
	}
}
MOTION
Frames: 16
Frame Time: 0.033333
-2.171939 0.746933 1.000971 89.465620 -0.413258 84.491326 -2.688192 0.845488 4.484847 0.488861 -6.046501 1.802476 2.905761 11.300827 -9.928495 0.000000 -0.000000 0.000000 0.134877 -1.913736 3.821911 -4.098725 -0.390518 4.388406 1.845591 -9.489548 -9.876523 0.000000 -0.000000 0.000000 -1.856393 1.409634 6.659830 -0.301276 -3.093767 5.120906 -1.322924 0.675736 -2.558526 0.932865 -6.674928 0.783287 5.593773 -7.359481 3.678981 -25.934218 -6.551079 0.926032 -54.266943 -9.264592 14.390815 2.529459 -19.565169 2.087081 -9.687272 -3.994655 2.394433 23.935776 10.882076 1.020531 57.803725 4.424452 21.535928 0.163856 25.617884 12.738353 7.005337 3.570832 5.177746 
-2.171511 0.747575 1.000880 89.198269 -0.410755 84.662171 -2.695950 0.901712 4.410121 0.495028 -5.966955 1.675868 2.849181 11.370743 -10.030990 0.000000 -0.000000 0.000000 0.125478 -1.878043 3.675958 -4.161246 -0.244035 4.259610 1.975629 -9.463878 -9.905145 0.000000 -0.000000 0.000000 -1.775744 1.749496 6.557964 -0.417667 -2.908713 5.105648 -1.264566 0.706546 -2.464066 1.051783 -6.297387 0.470805 5.589618 -6.952205 3.525127 -25.837305 -6.536571 0.969475 -54.448568 -9.203875 14.416977 2.817770 -19.762723 2.151512 -8.883524 -3.686936 2.546822 23.844356 10.662246 1.067237 57.952950 4.364340 21.265050 -0.303858 25.684117 12.340809 7.072620 3.382584 4.600554 
-2.171024 0.748448 1.001056 89.113753 -0.389084 84.712739 -2.679343 1.041416 4.504623 0.428998 -6.007208 1.450089 2.715333 11.381794 -9.956840 0.000000 -0.000000 0.000000 0.069026 -1.964557 3.643786 -4.184701 -0.171380 4.221200 2.071661 -9.389471 -9.784461 0.000000 -0.000000 0.000000 -1.744069 1.825746 6.622951 -0.392483 -2.771246 5.162723 -1.213672 0.678544 -2.461866 1.147562 -6.243395 0.121752 5.512450 -6.657105 3.563932 -26.018704 -6.739304 1.236649 -54.178599 -9.096475 14.806354 2.850401 -20.125983 3.293019 -6.694884 -3.871196 3.240372 23.869934 10.719031 1.283821 57.805638 4.428099 21.033444 -0.454781 25.757265 11.669387 5.605705 3.642873 3.933370 
-2.170291 0.749672 1.001329 89.519598 -0.371795 84.795768 -2.777805 1.005915 4.582412 0.483955 -6.293364 1.164880 2.683063 11.241602 -9.759549 0.000000 -0.000000 0.000000 -0.002620 -2.277847 3.612774 -4.287634 -0.222695 4.280486 2.195821 -9.391831 -9.726677 0.000000 -0.000000 0.000000 -1.748098 1.734799 6.477088 -0.341832 -2.893332 5.591154 -1.214946 0.620719 -2.553994 1.114339 -5.742543 -0.376597 5.608851 -6.265520 3.394773 -25.753704 -6.704976 1.127991 -54.312137 -9.070020 14.788585 2.784972 -19.995076 3.599833 -6.655108 -3.704291 3.412350 23.753861 10.622017 1.208222 57.723046 4.451040 20.969349 -0.509674 25.517363 11.621873 5.677319 3.596017 4.180168 
-2.170057 0.750584 1.001273 89.696344 -0.418760 84.879573 -2.935977 1.006980 4.483284 0.509102 -6.434923 1.182667 2.672529 11.178480 -9.758390 0.000000 -0.000000 0.000000 -0.167270 -2.298126 3.485639 -4.242766 -0.360195 4.380298 2.215208 -9.417810 -9.844443 0.000000 -0.000000 0.000000 -1.769548 1.688973 6.601328 -0.339025 -2.858104 5.469615 -1.232644 0.606126 -2.495179 1.173584 -5.684700 -0.454419 5.699103 -6.213275 3.227262 -25.671348 -6.689799 0.997475 -54.232653 -9.079361 14.818265 2.609403 -19.886005 3.703293 -6.836067 -3.811045 3.457191 23.641082 10.479898 1.079867 57.729951 4.363584 20.998033 -0.461859 25.374641 11.831131 5.665714 3.620606 4.476713 
-2.170001 0.751793 1.000986 89.759567 -0.348144 84.964178 -2.948161 0.903019 4.352945 0.471318 -6.449718 1.245644 2.828315 11.195894 -9.728948 0.000000 -0.000000 0.000000 -0.121035 -2.223286 3.214692 -4.298880 -0.357315 4.722752 2.199121 -9.588443 -9.879055 0.000000 -0.000000 0.000000 -1.624580 1.675483 7.043217 -0.400173 -2.854088 4.933295 -1.249794 0.747561 -2.457224 1.203152 -5.860664 -0.485117 5.669961 -6.188272 3.320905 -25.494304 -6.605551 0.855080 -54.374054 -8.998201 15.108711 2.576784 -19.788059 4.163448 -7.020449 -3.579820 3.354072 23.499570 10.305892 1.069807 57.805456 4.183662 21.036250 -0.509793 25.470174 11.815759 5.779376 3.350070 3.888155 
-2.169462 0.753140 1.000913 89.803328 -0.342349 85.018580 -3.042885 0.887697 4.408610 0.474063 -6.465974 1.075393 2.839810 11.269267 -9.698625 0.000000 -0.000000 0.000000 -0.153821 -2.120325 3.018907 -4.331988 -0.432317 5.066781 2.188377 -9.716196 -10.003608 0.000000 -0.000000 0.000000 -1.597897 1.692663 6.930764 -0.394733 -2.835367 5.088260 -1.285821 0.778400 -2.467317 1.075128 -5.874139 -0.363438 5.835519 -6.351037 3.185938 -25.527524 -6.905862 0.990431 -54.249347 -8.925311 15.099787 2.600230 -19.495723 4.030459 -7.173963 -3.884435 3.702835 23.543233 10.717632 1.280311 57.733285 3.808115 21.055883 -0.682590 25.301408 12.006782 5.480078 4.001043 4.496026 
-2.168708 0.754661 1.001011 90.017791 -0.300487 84.981158 -3.097698 0.899823 4.534685 0.495149 -6.572281 1.034575 2.843775 11.205663 -9.728760 0.000000 -0.000000 0.000000 -0.200380 -2.180833 3.095125 -4.311987 -0.464892 5.179883 2.146125 -9.881670 -10.117255 0.000000 -0.000000 0.000000 -1.602977 1.723921 6.877022 -0.338742 -2.871468 5.275824 -1.283109 0.734217 -2.444483 1.016416 -6.000583 -0.258729 5.798657 -6.549184 2.934241 -25.723647 -7.036460 1.004504 -54.071419 -8.950783 15.145884 2.507857 -19.378617 4.043630 -7.420935 -3.870771 3.989520 23.734162 10.685559 1.183996 57.544924 3.652471 20.967393 -0.711950 25.033236 11.987892 5.782055 3.869036 4.865644 
-2.167804 0.755788 1.000866 90.004532 -0.255588 84.918060 -3.100440 0.921294 4.507017 0.410092 -6.470662 1.349321 2.791971 11.198575 -10.003548 0.000000 -0.000000 0.000000 -0.289261 -2.246718 3.244825 -4.227090 -0.421719 5.136376 2.168263 -9.873008 -10.089474 0.000000 -0.000000 0.000000 -1.581105 1.956137 6.420391 -0.254554 -2.785110 5.912639 -1.312994 0.613888 -2.281373 1.064723 -6.168572 -0.248833 5.724611 -7.001138 2.875219 -25.702920 -7.104285 1.056498 -54.011434 -9.253091 15.109655 2.281247 -19.586490 4.035605 -7.430506 -3.619164 4.185583 23.669210 10.715947 1.077321 57.459652 3.753587 20.889372 -0.588186 25.084955 11.776501 6.049300 3.717738 4.685838 
-2.166846 0.756730 1.000625 90.110304 -0.109191 84.963583 -3.011060 0.842460 4.465745 0.334038 -6.656437 1.414956 2.878316 11.214251 -10.050503 0.000000 -0.000000 0.000000 -0.156311 -2.299119 3.163054 -4.308665 -0.482991 5.355499 2.180255 -9.869384 -10.158745 0.000000 -0.000000 0.000000 -1.488538 1.809665 6.571419 -0.227643 -2.831809 5.622266 -1.332013 0.725900 -2.257275 1.021999 -6.713209 0.058711 5.685606 -7.427472 2.795693 -25.560478 -6.895758 0.884367 -54.139939 -9.081575 15.448672 2.206110 -19.856552 4.488372 -7.220485 -3.660628 4.073636 23.641798 10.585802 0.952441 57.670310 3.639973 21.070466 -0.520938 25.220935 11.725124 5.912229 3.421968 4.057122 
-2.166160 0.757539 1.000567 89.886053 -0.103445 85.081370 -3.076773 0.863085 4.483065 0.375537 -6.568957 1.251249 2.870772 11.276630 -9.954379 0.000000 -0.000000 0.000000 -0.179570 -2.121491 3.016365 -4.327436 -0.488150 5.432995 2.144490 -9.865782 -10.153836 0.000000 -0.000000 0.000000 -1.522477 1.779407 6.660911 -0.217861 -2.739188 5.243931 -1.347169 0.862018 -2.269996 0.915470 -7.044348 0.308359 5.729212 -7.727648 2.750374 -25.636251 -6.710682 0.769525 -54.145101 -8.949478 15.526081 2.167106 -19.875037 4.525069 -7.450277 -3.774393 4.329400 23.722115 10.648486 1.035843 57.721036 3.279877 21.313067 -0.379214 25.343146 12.408562 5.753329 3.866244 4.800338 
-2.164982 0.758217 1.000612 89.885682 -0.119962 85.086837 -3.155006 0.957119 4.557362 0.380164 -6.627556 1.270686 2.871606 11.274504 -10.027192 0.000000 -0.000000 0.000000 -0.276232 -2.202004 3.158623 -4.304367 -0.469431 5.275855 2.171502 -9.815892 -10.009258 0.000000 -0.000000 0.000000 -1.571823 1.731939 6.387607 -0.229731 -2.835283 5.559352 -1.377074 0.904630 -2.366736 0.887873 -7.491514 0.565660 5.751774 -8.213828 2.437114 -25.487041 -6.734072 0.780201 -54.242884 -9.006170 15.620812 2.015125 -19.805800 4.595928 -7.625848 -3.706015 4.466218 23.661754 10.726823 0.970371 57.935630 3.352643 21.314683 -0.310221 25.426282 12.159984 5.923445 3.843114 4.442808 
-2.164136 0.758895 1.000659 89.868495 -0.080839 85.017125 -3.216580 0.972211 4.708092 0.465841 -6.643789 1.234434 2.809044 11.250212 -10.124322 0.000000 -0.000000 0.000000 -0.302076 -2.310646 3.349484 -4.301756 -0.463145 5.155851 2.187917 -9.815416 -10.023628 0.000000 -0.000000 0.000000 -1.540073 1.687645 6.344299 -0.174144 -2.937241 5.778416 -1.421874 0.870511 -2.451935 0.809854 -7.908063 0.624762 5.692014 -8.644610 2.304221 -25.471848 -6.807553 0.734763 -54.235946 -8.992145 15.716941 1.865521 -19.720679 4.484360 -7.430040 -3.661840 4.596495 23.732547 10.780345 0.758208 57.839172 3.404098 21.469635 0.123175 25.370363 12.710781 5.737693 3.762160 5.104851 
-2.163666 0.759557 1.000459 89.589549 -0.096621 85.054294 -3.277968 0.978089 4.751187 0.450573 -6.487371 1.163755 2.853323 11.351400 -10.106845 0.000000 -0.000000 0.000000 -0.348997 -2.198463 3.249922 -4.341011 -0.428899 5.263322 2.241764 -9.640846 -10.036670 0.000000 -0.000000 0.000000 -1.502360 1.754100 6.548674 -0.227470 -2.819845 5.386077 -1.402489 0.842801 -2.389986 0.669639 -8.121677 0.619242 5.780112 -8.896448 2.163793 -25.467775 -6.831494 0.697375 -54.364542 -8.928581 15.725266 1.904033 -19.597395 4.664895 -7.478447 -3.952324 4.784064 23.734224 10.799881 0.691012 57.846292 3.271135 21.563216 0.274894 25.387131 13.374488 5.597879 4.107093 5.752306 
-2.163133 0.759844 1.000366 89.492529 -0.059529 85.046751 -3.257558 1.022560 4.671518 0.421480 -6.509312 1.431996 2.815106 11.444390 -10.278652 0.000000 -0.000000 0.000000 -0.268487 -2.081579 3.315308 -4.413353 -0.328052 5.213386 2.239190 -9.731894 -10.003416 0.000000 -0.000000 0.000000 -1.467150 1.765601 6.532655 -0.188142 -2.873082 5.386076 -1.461939 0.858433 -2.355986 0.534104 -8.533628 0.916298 5.700085 -9.186457 1.857526 -25.415466 -6.698372 0.523361 -54.460725 -8.971605 15.908262 1.803689 -19.640765 4.666580 -7.435574 -3.912238 4.804666 23.631792 10.626696 0.466303 57.905017 3.431484 21.511580 0.574418 25.345935 13.493022 5.522376 4.087833 5.847305 
-2.162405 0.760135 1.000374 89.494192 -0.002046 85.082481 -3.229870 1.013174 4.679669 0.436512 -6.452519 1.467632 2.780982 11.404548 -10.301501 0.000000 -0.000000 0.000000 -0.239503 -2.122798 3.381163 -4.379550 -0.334326 5.123551 2.248401 -9.729394 -10.044113 0.000000 -0.000000 0.000000 -1.415405 1.752037 6.462423 -0.155382 -2.962476 5.412253 -1.472585 0.808784 -2.380694 0.387424 -8.797852 1.017582 5.599937 -9.356580 1.513020 -25.387128 -6.728390 0.500231 -54.530472 -8.966432 15.982139 1.716074 -19.742066 4.642936 -7.457105 -3.756366 4.763095 23.502262 10.612374 0.419458 57.955337 3.344363 21.470889 0.518964 25.564897 13.362589 5.741429 4.171454 5.653568 
